<?xml version="1.0" encoding="utf-8"?>
<!-- Generator: Adobe Illustrator 23.0.0, SVG Export Plug-In . SVG Version: 6.00 Build 0)  -->
<svg version="1.1" id="Layer_1" xmlns="http://www.w3.org/2000/svg" xmlns:xlink="http://www.w3.org/1999/xlink" x="0px" y="0px"
	 viewBox="0 0 362.4 196.2" style="enable-background:new 0 0 362.4 196.2;" xml:space="preserve">
<style type="text/css">
	.st0{fill:#231F20;}
</style>
<g>
	<path class="st0" d="M152.5,77.9c0,1.5-0.3,3.1-0.8,4.8c-0.5,1.7-1.3,3.4-2.3,5c-1,1.6-2.4,3.2-4,4.8c-1.6,1.5-3.6,2.9-5.9,4.1
		c-2.3,1.2-4.9,2.2-7.8,3c-2.9,0.8-6.2,1.3-9.8,1.5c2.2,0.8,4,1.9,5.5,3.2c1.5,1.3,2.7,2.7,3.7,4.3s1.8,3.3,2.5,5.2
		c0.7,1.9,1.2,3.7,1.5,5.3c0.3,1.6,0.7,3.2,1.1,4.7c0.4,1.5,0.8,2.9,1.3,4.1c0.4,1.2,1,2.2,1.7,2.9c0.7,0.7,1.6,1.1,2.7,1.1
		c1.1,0,2.3-0.2,3.5-0.5c1.3-0.4,2.6-0.9,4-1.5c1.3-0.7,2.7-1.5,4-2.4c1.3-0.9,2.5-1.9,3.7-3l5.5,9.3c0,0-0.3,0.2-0.9,0.6
		c-0.6,0.4-1.4,1-2.5,1.6c-1.1,0.7-2.4,1.4-3.8,2.1c-1.5,0.8-3.1,1.5-4.9,2.2c-1.8,0.7-3.7,1.2-5.6,1.7c-2,0.4-4,0.7-6.1,0.7
		c-2.3,0-4.3-0.6-6-1.7c-1.6-1.1-3-2.7-4.2-4.5c-1.1-1.9-2.1-4-2.9-6.4c-0.8-2.4-1.4-4.7-1.9-6.9c-0.5-2.2-1-4.6-1.5-7.2
		c-0.6-2.6-1.1-4.9-1.8-6.8c-0.6-2-1.4-3.5-2.3-4.7c-0.9-1.1-2.1-1.7-3.4-1.7h-3.3c-1,6.9-1.9,13.1-2.8,18.6
		c-0.9,5.5-2.1,10.2-3.5,14.1c-1.5,3.9-3.3,6.8-5.5,8.8c-2.2,2-4.9,3.1-8.1,3.1c-2.5,0-4.9-0.5-7-1.5c-2.1-1-4-2.3-5.7-4
		c-1.7-1.7-3.2-3.7-4.5-5.9s-2.3-4.7-3.2-7.3c-0.8-2.6-1.5-5.3-1.9-8s-0.6-5.5-0.6-8.2c0-4.9,0.6-9.7,1.8-14.5s3-9.2,5.3-13.4
		s5.1-8,8.4-11.6c3.3-3.5,7-6.5,11-9.1c4.1-2.6,8.5-4.5,13.4-6c4.8-1.4,9.9-2.1,15.3-2.1c2.4,0,4.7,0.2,7.1,0.7
		c2.3,0.4,4.6,1.1,6.7,2c2.1,0.9,4.1,1.9,5.9,3.2c1.8,1.3,3.4,2.7,4.7,4.4c1.3,1.6,2.4,3.5,3.1,5.5
		C152.1,73.4,152.5,75.5,152.5,77.9z M122.9,66.4c-5.2,0-9.9,0.7-14.1,2.2c-4.1,1.5-7.7,3.4-10.9,5.9c-3.1,2.5-5.8,5.4-8,8.6
		c-2.2,3.3-4,6.7-5.3,10.3c-1.4,3.6-2.4,7.2-3,10.9c-0.6,3.7-0.9,7.2-0.9,10.5c0,2.6,0.2,5.2,0.7,7.7c0.4,2.6,1.1,4.9,2.1,7
		c1,2.1,2.2,3.7,3.7,5c1.5,1.3,3.3,1.9,5.5,1.9c1.1,0,2-0.4,2.9-1.3s1.6-2,2.2-3.4c0.6-1.4,1.2-3,1.7-4.9c0.5-1.9,0.8-3.8,1-5.8
		c0.2-2,0.4-4,0.6-6.1c0.2-2,0.4-3.9,0.6-5.7c0.2-1.8,0.3-3.3,0.4-4.7c0.1-1.4,0.1-2.4,0.1-3.1c-2.4-1.1-4.3-2.2-5.6-3.1
		c-1.3-1-1.9-2.1-1.9-3.4c0-0.4,0-0.8,0.1-1.3c0-0.5,0.1-0.9,0.3-1.4c0.2-0.4,0.4-0.8,0.7-1.1c0.3-0.3,0.7-0.4,1.2-0.4
		c0.2,0,0.7,0,1.3,0c0.7,0,1.4-0.1,2.1-0.1c0.7,0,1.4-0.1,2-0.1c0.6,0,1,0,1.2,0l0,0.1c0-0.7,0.1-1.4,0.2-2.2
		c0.1-0.8,0.2-1.7,0.4-2.7c0.2-1,0.5-2,0.8-3.1c0.4-1,0.9-2,1.5-2.8c0.6-0.8,1.3-1.5,2.2-2c0.8-0.5,1.9-0.8,3.1-0.8
		c1.6,0,2.7,0.4,3.2,1.1c0.5,0.7,0.8,1.7,0.8,2.8v0.4c-0.1,1.2-0.4,2.9-1.1,4.9c-0.7,2-1.3,4.4-1.8,7.1c5.4-0.1,9.9-0.6,13.5-1.6
		c3.5-1,6.3-2.2,8.4-3.7c2.1-1.5,3.5-3.1,4.4-4.8c0.8-1.8,1.3-3.5,1.3-5.1c0-1.6-0.4-3-1.1-4.5c-0.7-1.4-1.8-2.7-3.3-3.8
		c-1.5-1.1-3.3-2-5.4-2.6C128.3,66.7,125.8,66.4,122.9,66.4z"/>
	<path class="st0" d="M179,101.3c0.9,1.8,1.6,3.8,2.1,5.8c0.5,2,0.7,4.4,0.7,6.9c0,1.9-0.2,3.8-0.6,5.7c-0.4,1.9-1,3.7-1.8,5.5
		c-0.8,1.8-1.7,3.4-2.9,5c-1.1,1.6-2.4,2.9-3.9,4c-1.4,1.1-3,2-4.7,2.7c-1.7,0.7-3.5,1-5.5,1c-2.8,0-5.2-0.6-7.2-1.8
		c-2-1.2-3.6-2.8-4.9-4.8c-1.3-2-2.2-4.2-2.8-6.7c-0.6-2.5-0.9-5-0.9-7.5c0-4.2,0.5-7.8,1.6-10.8c1-3,2.5-5.7,4.5-7.9
		c2-2.2,4.3-4,7.2-5.3s6-1.9,9.5-1.9c3,0,5.8,0.5,8.5,1.4c2.6,0.9,5.1,2.2,7.4,3.8c2.3,1.6,4.4,3.5,6.4,5.9c2,2.4,3.8,4.7,5.5,6.8
		l-0.9,6.7c-0.9-1.1-2-2.4-3.5-3.7c-1.5-1.3-3-2.8-4.6-4.4c-1.6-1.6-3.2-3-4.8-4.1c-1.6-1.1-3-2.1-4.1-2.8L179,101.3z M164.3,128.9
		c1.1,0,2.1-0.5,3.1-1.6c1-1.1,1.9-2.5,2.7-4.1c0.8-1.7,1.4-3.7,1.8-6c0.5-2.4,0.7-4.5,0.7-6.3c0-1.5-0.1-2.8-0.3-4.1
		c-0.2-1.3-0.6-2.3-1-3.3c-0.4-0.9-1-1.7-1.7-2.2c-0.7-0.5-1.5-0.8-2.5-0.8c-1.3,0-2.5,0.6-3.7,1.7c-1.2,1.1-2.2,2.5-3.1,4.3
		c-0.9,1.7-1.6,3.6-2.1,5.7c-0.5,2.1-0.8,4.5-0.8,7.1c0,1.3,0.1,2.6,0.4,3.8c0.3,1.2,0.7,2.2,1.2,3.1c0.5,0.9,1.3,1.6,2.1,2.1
		C162,128.6,163.1,128.9,164.3,128.9z"/>
	<path class="st0" d="M190.2,116.5c0,0.9,0,1.9,0,2.8c0,0.9,0,1.7,0,2.5c0,0.8,0,1.5,0.1,2.1c0.1,0.6,0.2,1.2,0.4,1.6
		c0.2,0.5,0.5,0.8,0.9,1.1c0.4,0.3,0.9,0.4,1.5,0.4c0.3,0,0.7-0.2,1.2-0.6c0.4-0.4,0.9-1,1.5-1.8c0.6-0.8,1.2-1.7,1.9-2.8
		c0.7-1.1,1.5-2.2,2.4-3.5c-0.3-1.9-1.3-4.5-2.9-7.9c-2.5-5.3-4.4-9.8-5.7-13.6c-0.1-0.2-0.1-0.4-0.1-0.5c0-0.6,0.2-1.2,0.7-1.9
		s1.1-1.3,1.8-1.8c0.7-0.6,1.6-1,2.4-1.4c0.9-0.4,1.7-0.6,2.5-0.6c0.6,0,1.2,0.1,1.6,0.3c0.5,0.3,0.9,0.6,1,1
		c1.9,5.6,2.5,6.9,1.7,4.1c-0.4-1.3,1.4,2.5,5.5,11.3c0.3-0.8,3-3.5,8.2-8.2c2-1.8,4.1-3.5,6.5-5.1c0.8-0.6,1.5-0.9,2.2-1.2
		c0.7-0.2,1.3-0.3,1.9-0.3c0.7,0,1.4,0.2,1.9,0.5c0.6,0.3,1,0.7,1.4,1.2c0.4,0.5,0.7,1.1,0.9,1.8c0.2,0.7,0.3,1.4,0.3,2.1
		c0,1-0.2,2-0.6,3c-0.4,1-1,1.7-1.9,2.3c-2.7,1.8-5.1,3.5-7,5.4c-3.1,2.9-6.2,5.9-9.1,9.1c0.7,1.3,1.4,2.5,2.1,3.7
		c0.7,1.1,1.4,2.2,2.1,3c0.7,0.9,1.3,1.5,1.9,2c0.6,0.5,1.2,0.7,1.7,0.7c0.7,0,1.5-0.2,2.5-0.5c1-0.3,2.1-0.8,3.2-1.3
		c1.1-0.5,2.3-1.2,3.5-1.9s2.3-1.4,3.4-2.2s2-1.5,2.9-2.3c0.9-0.8,1.6-1.5,2.1-2.1c0,1.1,0,2.1,0,2.9c0,0.9,0,1.7,0,2.5s0,1.6,0,2.3
		c0,0.7,0,1.5,0,2.4c-1,1-2.4,2.1-4,3.4c-1.7,1.2-3.5,2.4-5.5,3.5c-2,1.1-4.2,2-6.5,2.8c-2.3,0.8-4.6,1.1-6.9,1.1
		c-1.3,0-2.9-0.9-4.9-2.6c-2-1.7-4.1-4.5-6.4-8.3c-1.4,1.5-2.7,3-3.9,4.3c-1.2,1.3-2.4,2.5-3.5,3.4c-1.1,1-2.1,1.8-3,2.3
		c-1,0.6-1.8,0.8-2.6,0.8c-1.6,0-2.9-0.4-3.9-1.2c-1-0.8-1.8-1.8-2.5-3c-0.6-1.2-1.1-2.5-1.3-3.9c-0.3-1.4-0.4-2.8-0.5-4.1
		L190.2,116.5z"/>
	<path class="st0" d="M263.1,127.9c-1.1,1-2.6,2.2-4.3,3.4c-1.7,1.2-3.5,2.3-5.5,3.3c-2,1-4,1.8-6,2.5c-2,0.7-4,1-5.8,1
		c-1.7,0-3-0.2-4.2-0.7c-1.1-0.5-2-1.1-2.7-1.9c-0.7-0.8-1.2-1.8-1.5-3c-0.3-1.2-0.5-2.5-0.5-3.9c0-2,0.2-4.3,0.7-7
		c0.9-5.5,1.5-8.6,1.8-9.3c0.4-1.4,1.3-4.4,2.6-9c1.2-3.8,1.9-6.3,2.2-7.4c0.2-0.8,0.6-1.5,1.3-2.2c0.7-0.6,1.4-1.1,2.2-1.4
		c0.8-0.4,1.7-0.6,2.6-0.8c0.9-0.2,1.7-0.3,2.4-0.3c1.3,0,2.2,0.2,2.7,0.7c0.5,0.5,0.7,1.2,0.7,2c0,0.7-0.2,1.7-0.5,3
		s-0.7,2.7-1.1,4.4c-0.4,1.6-1,3.7-1.9,6.3c-0.8,2.6-1.4,4.8-1.7,6.6s-0.7,3.6-1.1,5.4s-0.7,3.4-0.7,4.9c0,1.4,0.2,2.6,0.5,3.4
		c0.3,0.8,1,1.3,2,1.3c1.1,0,2.4-0.4,3.8-1.2c1.4-0.8,2.8-1.8,4.2-2.9c1.4-1.1,2.8-2.3,4.2-3.5c1.4-1.2,2.6-2.2,3.6-3.1V127.9z
		 M241.8,77.9c0-0.7,0.2-1.6,0.5-2.5c0.3-0.9,0.8-1.8,1.5-2.6c0.7-0.8,1.7-1.5,2.9-2.1c1.2-0.6,2.7-0.8,4.5-0.8
		c1.1,0,2.2,0.1,3.1,0.4c1,0.3,1.8,0.6,2.6,1.2c0.7,0.5,1.3,1.2,1.7,2.1c0.4,0.9,0.6,1.9,0.6,3.1c0,1.1-0.2,2.1-0.5,3.2
		c-0.4,1-0.9,1.9-1.7,2.7c-0.8,0.8-1.7,1.5-2.9,1.9c-1.2,0.5-2.5,0.7-4.2,0.7c-2.8,0-4.9-0.7-6.2-2
		C242.5,81.9,241.8,80.1,241.8,77.9z"/>
	<path class="st0" d="M271.7,138c-3,0-5.6-0.5-7.8-1.6c-2.2-1.1-4.1-2.6-5.6-4.4s-2.6-4-3.3-6.4s-1.1-5-1.1-7.7c0-1.8,0.3-3.8,1-6.3
		s1.4-4.6,2.1-6.5c0.7-1.9,1.6-3.7,2.7-5.4s2.3-3.2,3.8-4.5c1.4-1.3,3-2.3,4.8-3.1s3.8-1.2,5.9-1.2c1.8,0,3.4,0.3,5,0.9
		s2.9,1.4,4,2.4s2,2.3,2.6,3.7s1,3.1,1,4.9c0,1.9-0.6,4.1-1.9,6.5c-1.3,2.4-2.8,4.4-4.5,6.1s-3.8,3.2-6.1,4.6
		c-2.4,1.3-4.9,2.4-7.7,3.1c0.5,0.8,0.9,1.5,1.4,2.1c0.5,0.6,0.9,1,1.4,1.3c0.5,0.3,1,0.5,1.5,0.7c0.5,0.1,1.1,0.2,1.7,0.2
		c1.9,0,3.9-0.4,6-1.1c2.1-0.7,4.2-1.7,6.2-2.8c2-1.1,3.9-2.3,5.7-3.7s3.3-2.6,4.5-3.7l6.1,6.2c-2.8,3-5.8,5.6-8.9,7.9
		c-1.4,1-2.8,1.9-4.4,2.9c-1.6,0.9-3.2,1.8-5,2.5c-1.7,0.7-3.5,1.3-5.4,1.8C275.5,137.8,273.6,138,271.7,138z M265.4,115.4
		c1.1,0,2.4-0.3,3.8-0.9c1.4-0.6,2.6-1.3,3.8-2.2c1.2-0.9,2.3-2.1,3.4-3.6c1.1-1.5,1.7-2.8,1.7-3.8c0-1.4-0.3-2.5-0.8-3.4
		c-0.5-0.9-1.2-1.4-1.9-1.4c-1.4,0-2.5,0.2-3.5,0.7c-1,0.5-1.8,1.1-2.4,1.9s-1.2,1.7-1.6,2.7s-0.9,2.3-1.4,3.7
		c-0.5,1.5-0.8,2.7-0.9,3.7C265.4,113.9,265.4,114.7,265.4,115.4z"/>
</g>
</svg>
