<?xml version="1.0" encoding="utf-8"?>
<!-- Generator: Adobe Illustrator 23.0.0, SVG Export Plug-In . SVG Version: 6.00 Build 0)  -->
<svg version="1.1" id="Layer_1" xmlns="http://www.w3.org/2000/svg" xmlns:xlink="http://www.w3.org/1999/xlink" x="0px" y="0px"
	 viewBox="0 0 255.4 307.7" style="enable-background:new 0 0 255.4 307.7;" xml:space="preserve">
<style type="text/css">
	.st0{fill:#EFC53B;}
	.st1{fill:#F9D23C;}
	.st2{fill:#FCE293;}
	.st3{fill:#FCDB83;}
	.st4{fill:#624E43;}
	.st5{fill:#F5FBFD;}
	.st6{fill:#D75451;}
	.st7{fill:#E4529A;}
	.st8{fill:#E561A1;}
	.st9{fill-rule:evenodd;clip-rule:evenodd;fill:#624E43;}
	.st10{fill:#F8D13B;}
	.st11{fill:#FBE191;}
	.st12{fill:#FBDB82;}
	.st13{fill:#624E42;}
	.st14{fill:#F4FAFC;}
	.st15{fill:#D65351;}
	.st16{fill:#E35199;}
	.st17{fill:#E4609F;}
	.st18{fill:#EFC53A;}
	.st19{fill-rule:evenodd;clip-rule:evenodd;fill:#624E42;}
</style>
<g>
	<g>
		<ellipse class="st0" cx="128.1" cy="283.7" rx="54.4" ry="2.7"/>
	</g>
</g>
<path class="st10" d="M184.2,138.4c0-0.5,0-1,0-1.5c0.4-10.7,0.9-21.5,1.5-32.2c0-4.4,0.1-8.6,0.1-11c0-4.8,0-7.7,0-7.7
	c0-10.8-8.8-19.6-19.6-19.6H89.3c-10.8,0-19.6,8.8-19.6,19.6c0,0-0.4,7.8,0,11.7c0.4,3.9,1.8,29.7,2.5,40.8c0,0.4,0,0.8,0.1,1.1
	c0.1,1.6-2.6,11.1-2.8,13.7c-1.2,13,1.6,26.2,8,37.6c0.2,0.4,0.7,1.1,1.2,1.9c8.1,11.6,21.6,15.4,26.6,16.6
	c3.6,0.9,7.4,1.5,11.3,1.8c12.4,0.8,30.6,1.6,44.6-3.5c20.5-7.4,22.6-27.2,22.8-46.1"/>
<g>
	<path class="st11" d="M127.5,105.9c15.4,0,28.8,8.4,36.2,20.8c-7.1-13.5-21.1-22.7-37.3-22.7c-23.3,0-42.2,19.1-42.2,42.6
		c0,7.9,2.2,15.3,6,21.7c-3.1-5.9-4.9-12.6-4.9-19.8C85.3,125.1,104.2,105.9,127.5,105.9z"/>
	<path class="st12" d="M163.6,126.7c3.1,5.9,4.9,12.7,4.9,19.9c0,23.4-18.9,42.3-42.2,42.3c-15.4,0-28.8-8.3-36.2-20.6
		c7.1,13.4,21.1,22.5,37.3,22.5c23.3,0,42.2-18.8,42.2-42.3C169.7,140.6,167.4,133.1,163.6,126.7z"/>
	<path class="st12" d="M126.4,188.9c23.3,0,42.2-18.8,42.2-42.3c0-7.2-1.8-13.9-4.9-19.9c-7.4-12.4-20.8-20.8-36.2-20.8
		c-23.3,0-42.2,19.1-42.2,42.6c0,7.1,1.8,13.9,4.9,19.8C97.6,180.6,111,188.9,126.4,188.9z"/>
</g>
<g>
	<path class="st13" d="M102.5,140.5c-3.8-0.3-7.2,2.5-7.5,6.3c-0.3,3.8,2.5,7.2,6.3,7.5c3.8,0.3,7.2-2.5,7.5-6.3
		C109.2,144.2,106.4,140.8,102.5,140.5z"/>
	<path class="st14" d="M104.1,143.2c-1.1-0.1-2.1,0.7-2.2,1.9c-0.1,1.1,0.7,2.1,1.9,2.2c1.1,0.1,2.1-0.7,2.2-1.9
		C106.1,144.3,105.2,143.3,104.1,143.2z"/>
</g>
<g>
	<path class="st13" d="M150.2,146c-3.8-0.3-7.2,2.5-7.5,6.3c-0.3,3.8,2.5,7.2,6.3,7.5c3.8,0.3,7.2-2.5,7.5-6.3
		C156.8,149.7,154,146.3,150.2,146z"/>
	<path class="st14" d="M151.7,148.8c-1.1-0.1-2.1,0.7-2.2,1.9c-0.1,1.1,0.7,2.1,1.9,2.2c1.1,0.1,2.1-0.7,2.2-1.9
		C153.7,149.9,152.9,148.9,151.7,148.8z"/>
</g>
<g>
	<path class="st13" d="M131.3,161.7c-2.2-0.8-4.2,0.4-5.5,0.4c-1.3-0.3-3-1.7-5.3-1.4c-2.5,0.4-4.7,3.8-2.8,7.1c1.7,3,4.4,5,7,5.3
		c2.7,0.3,6-1.3,8.2-3.9C135.2,166.2,133.6,162.5,131.3,161.7z"/>
	<path class="st15" d="M118,168.4c1.7,2.7,3.7,4.5,6.9,4.7c3.2,0.2,5.3-1,7.4-3.2c-1-1.7-3.1-4.1-6.7-4.4
		C121.5,165.2,119.2,167,118,168.4z"/>
</g>
<g>
	<path class="st16" d="M120.1,31.4c-6.1,0.1-24.3,5-24.3,23.4s19.2,25.3,29.8,25.3c37.6,0,30.7-30.1,56.4-30.1
		c-7.6-21.9-45.3-30.5-69.4-8C112.9,38.6,117.4,33.4,120.1,31.4"/>
</g>
<path class="st17" d="M154.4,50C154.4,50,154.4,50,154.4,50c0,0.1-13.3-4.6-24.8,0.6c-4.1,1.9-11.1,5.8-10.7,11
	c0.2,3.7,2.6,7.1,5.8,6.4c2.1-0.4,4-2.1,8.4-6.5c3.8-3.8,7.8-6.3,10.2-7.5c0.1,0,0.3-0.1,0.7-0.4C143.9,53.7,152.7,49.2,154.4,50z"
	/>
<g>
	<path class="st10" d="M105.3,217.2c-0.6-0.1-1.1-0.3-1.7-0.4l10.9,55.5c0,0-26.6-4.5-26.6,4.6c0,4.4,13.5,5.9,17.5,5.9
		s12.2-0.7,15-3.2c2.2-2,1.9-5,1.7-8.7c-0.2-3.7-4.7-51.8-4.7-51.8c-0.3,0-0.6,0-0.9-0.1C112.7,218.6,108.9,218,105.3,217.2z"/>
	<path class="st18" d="M102,208.3l1.7,8.4c0.6,0.2,1.1,0.3,1.7,0.4c3.6,0.9,7.4,1.5,11.3,1.8c0.3,0,0.6,0,0.9,0.1l-0.7-8.2
		L102,208.3z"/>
	<path class="st18" d="M138.7,211l-0.8,8.6c4.6-0.2,9.2-0.6,13.7-1.4l1.9-9.7L138.7,211z"/>
</g>
<path class="st19" d="M155.3,135.3c-3.4-0.8-8.1-0.4-10.3,1.7c-0.2,0.2-0.1,0.6,0.2,0.7l15.2,3.5c0.3,0.1,0.5-0.2,0.5-0.5
	C160.8,138.5,158.7,136.1,155.3,135.3z"/>
<path class="st19" d="M103.2,130.5c-3.2,1-7,3.6-7.8,6.6c-0.1,0.3,0.2,0.6,0.5,0.5l14.5-4.6c0.3-0.1,0.3-0.4,0.1-0.7
	C109.4,130.5,106.4,129.5,103.2,130.5z"/>
<path class="st18" d="M105.3,209.3c3.6,0.9,7.4,1.5,11.3,1.8c12.4,0.8,30.6,1.6,44.6-3.5c21.3-7.7,22.8-26.5,22.8-46.1
	c-4.7,24.7-29.3,45.2-58,45.2c0,0-22.3,0.9-43.9-10.1C88,202.9,96,207,105.3,209.3z"/>
<path class="st10" d="M150.2,217.4c0.6-0.1,1.1-0.3,1.7-0.4L141,272.2c0,0,26.6-4.5,26.6,4.6c0,4.4-13.5,5.9-17.5,5.9
	s-12.2-0.7-15-3.1c-2.2-1.9-1.9-5-1.7-8.7c0.2-3.7,4.7-51.6,4.7-51.6c0.3,0,0.6,0,0.9-0.1C142.8,218.9,146.6,218.3,150.2,217.4z"/>
<path class="st10" d="M184.2,138.4c0-0.5,0-1,0-1.5c0.4-10.7,0.9-21.5,1.5-32.2c0-4.4,0.1-8.6,0.1-11c0-4.8,0-7.7,0-7.7
	c0-10.8-8.8-19.6-19.6-19.6H89.3c-10.8,0-19.6,8.8-19.6,19.6c0,0-0.4,7.8,0,11.7c0.4,3.9,1.8,29.7,2.5,40.8c0,0.4,0,0.8,0.1,1.1
	c0.1,1.6-2.6,11.1-2.8,13.7c-1.2,13,1.6,26.2,8,37.6c0.2,0.4,0.7,1.1,1.2,1.9c8.1,11.6,21.6,15.4,26.6,16.6
	c3.6,0.9,7.4,1.5,11.3,1.8c12.4,0.8,30.6,1.6,44.6-3.5c20.5-7.4,22.6-27.2,22.8-46.1"/>
<g>
	<path class="st11" d="M127.5,105.9c15.4,0,28.8,8.4,36.2,20.8c-7.1-13.5-21.1-22.7-37.3-22.7c-23.3,0-42.2,19.1-42.2,42.6
		c0,7.9,2.2,15.3,6,21.7c-3.1-5.9-4.9-12.6-4.9-19.8C85.3,125.1,104.2,105.9,127.5,105.9z"/>
	<path class="st12" d="M163.6,126.7c3.1,5.9,4.9,12.7,4.9,19.9c0,23.4-18.9,42.3-42.2,42.3c-15.4,0-28.8-8.3-36.2-20.6
		c7.1,13.4,21.1,22.5,37.3,22.5c23.3,0,42.2-18.8,42.2-42.3C169.7,140.6,167.4,133.1,163.6,126.7z"/>
	<path class="st12" d="M126.4,188.9c23.3,0,42.2-18.8,42.2-42.3c0-7.2-1.8-13.9-4.9-19.9c-7.4-12.4-20.8-20.8-36.2-20.8
		c-23.3,0-42.2,19.1-42.2,42.6c0,7.1,1.8,13.9,4.9,19.8C97.6,180.6,111,188.9,126.4,188.9z"/>
</g>
<g>
	<path class="st13" d="M102.5,140.5c-3.8-0.3-7.2,2.5-7.5,6.3c-0.3,3.8,2.5,7.2,6.3,7.5c3.8,0.3,7.2-2.5,7.5-6.3
		C109.2,144.2,106.4,140.8,102.5,140.5z"/>
	<path class="st14" d="M104.1,143.2c-1.1-0.1-2.1,0.7-2.2,1.9c-0.1,1.1,0.7,2.1,1.9,2.2c1.1,0.1,2.1-0.7,2.2-1.9
		C106.1,144.3,105.2,143.3,104.1,143.2z"/>
</g>
<g>
	<path class="st13" d="M150.2,146c-3.8-0.3-7.2,2.5-7.5,6.3c-0.3,3.8,2.5,7.2,6.3,7.5c3.8,0.3,7.2-2.5,7.5-6.3
		C156.8,149.7,154,146.3,150.2,146z"/>
	<path class="st14" d="M151.7,148.8c-1.1-0.1-2.1,0.7-2.2,1.9c-0.1,1.1,0.7,2.1,1.9,2.2c1.1,0.1,2.1-0.7,2.2-1.9
		C153.7,149.9,152.9,148.9,151.7,148.8z"/>
</g>
<g>
	<path class="st13" d="M131.3,161.7c-2.2-0.8-4.2,0.4-5.5,0.4c-1.3-0.3-3-1.7-5.3-1.4c-2.5,0.4-4.7,3.8-2.8,7.1c1.7,3,4.4,5,7,5.3
		c2.7,0.3,6-1.3,8.2-3.9C135.2,166.2,133.6,162.5,131.3,161.7z"/>
	<path class="st15" d="M118,168.4c1.7,2.7,3.7,4.5,6.9,4.7c3.2,0.2,5.3-1,7.4-3.2c-1-1.7-3.1-4.1-6.7-4.4
		C121.5,165.2,119.2,167,118,168.4z"/>
</g>
<g>
	<path class="st16" d="M120.1,31.4c-6.1,0.1-24.3,5-24.3,23.4s19.2,25.3,29.8,25.3c37.6,0,30.7-30.1,56.4-30.1
		c-7.6-21.9-45.3-30.5-69.4-8C112.9,38.6,117.4,33.4,120.1,31.4"/>
</g>
<path class="st17" d="M154.4,50C154.4,50,154.4,50,154.4,50c0,0.1-13.3-4.6-24.8,0.6c-4.1,1.9-11.1,5.8-10.7,11
	c0.2,3.7,2.6,7.1,5.8,6.4c2.1-0.4,4-2.1,8.4-6.5c3.8-3.8,7.8-6.3,10.2-7.5c0.1,0,0.3-0.1,0.7-0.4C143.9,53.7,152.7,49.2,154.4,50z"
	/>
<g>
	<path class="st10" d="M105.3,217.2c-0.6-0.1-1.1-0.3-1.7-0.4l10.9,55.5c0,0-26.6-4.5-26.6,4.6c0,4.4,13.5,5.9,17.5,5.9
		s12.2-0.7,15-3.2c2.2-2,1.9-5,1.7-8.7c-0.2-3.7-4.7-51.8-4.7-51.8c-0.3,0-0.6,0-0.9-0.1C112.7,218.6,108.9,218,105.3,217.2z"/>
	<path class="st18" d="M102,208.3l1.7,8.4c0.6,0.2,1.1,0.3,1.7,0.4c3.6,0.9,7.4,1.5,11.3,1.8c0.3,0,0.6,0,0.9,0.1l-0.7-8.2
		L102,208.3z"/>
	<path class="st18" d="M138.7,211l-0.8,8.6c4.6-0.2,9.2-0.6,13.7-1.4l1.9-9.7L138.7,211z"/>
</g>
<path class="st19" d="M155.3,135.3c-3.4-0.8-8.1-0.4-10.3,1.7c-0.2,0.2-0.1,0.6,0.2,0.7l15.2,3.5c0.3,0.1,0.5-0.2,0.5-0.5
	C160.8,138.5,158.7,136.1,155.3,135.3z"/>
<path class="st19" d="M103.2,130.5c-3.2,1-7,3.6-7.8,6.6c-0.1,0.3,0.2,0.6,0.5,0.5l14.5-4.6c0.3-0.1,0.3-0.4,0.1-0.7
	C109.4,130.5,106.4,129.5,103.2,130.5z"/>
<path class="st18" d="M105.3,209.3c3.6,0.9,7.4,1.5,11.3,1.8c12.4,0.8,30.6,1.6,44.6-3.5c20.5-7.4,22.6-25.1,22.8-43.9
	c0-0.3-0.4-0.3-0.5-0.1c-5.7,23.8-29.6,43.1-57.6,43.1c0,0-21.5,0.9-42.6-9.4c-0.2-0.1-0.5,0.2-0.3,0.4
	C88.9,203.3,96.5,207.2,105.3,209.3z"/>
<path class="st10" d="M150.2,217.4c0.6-0.1,1.1-0.3,1.7-0.4L141,272.2c0,0,26.6-4.5,26.6,4.6c0,4.4-13.5,5.9-17.5,5.9
	s-12.2-0.7-15-3.1c-2.2-1.9-1.9-5-1.7-8.7c0.2-3.7,4.7-51.6,4.7-51.6c0.3,0,0.6,0,0.9-0.1C142.8,218.9,146.6,218.3,150.2,217.4z"/>
<g>
	<path class="st10" d="M89.4,91.1c0,0-0.3,0.1-0.3,0.1l0.1,0"/>
	<g>
		<path class="st10" d="M74.6,136.3c-0.1-4.4-0.4-3.3-0.2-7.1c-4.5,9.5-2.7,8.1-9.4,18.9c-6.7,10.9-28.4,41.7-46.7,36.3
			c-2.3-0.7-6-0.9-5.3,2.4c0.3,1.3,2.2,2.8,3.4,3.5c-1.2,0.8-2.1,0.8-3.4,1.7c-3.3,2.2-3.7,5.1-2,8.8c1.8,3.9,5.9,6.3,9.8,6.2
			c5.9-0.1,12.5-4.8,16.3-7.6c8.3-6.4,21.4-24.5,24.9-29.3c5.8-7.9,5.9-8,7.7-10.8c2.8-4.4,0.6-1.3,2.4-4.5
			C72.3,149.8,74.8,140.7,74.6,136.3z"/>
	</g>
</g>
<g>
	<path class="st10" d="M157.3,98.4c-0.1,0-0.3-0.1-0.3,0c0,0-0.1,0.1-0.1,0.1c0.1,0,0.3,0.1,0.5,0.1c0.4,0.1,0.7,0.1,1.1,0.2
		c0.6,0.5,1.7,1.4,2.9,2.6c16.6,16.5,6.6,39.4,22.3,62c0.5,0.7,3,3.6,8,9.2c3,3.4,16.8,19.3,29.5,27.9c5.7,3.9,10.5,5.5,17.1,5.6
		c4.4,0.1,7.7-3.6,9.2-7.5c1.4-3.7,0.8-6.9-3.1-8.6c-1.6-0.7-2.1-0.7-3.5-1.2c1.1-1,2.8-2.5,3-4c0.5-3.7-3.5-2.4-5.5-1.6
		c-15.8,6.7-42.7-18.1-50.3-31.2"/>
</g>
<path class="st18" d="M69.1,160.3l3-6.7c-0.3,7.4-0.6,14.7-0.8,22.1c-0.7-2.7-1.4-5.8-1.8-9.2C69.2,164.3,69.1,162.3,69.1,160.3z"/>
</svg>
